<svg xmlns="http://www.w3.org/2000/svg" viewBox="0 0 192 32" width="192" height="32">
  <!-- Mario-style character sprite sheet with 6 frames (32x32 each) -->
  <!-- Frame 1: Idle -->
  <g transform="translate(0,0)">
    <!-- Body -->
    <rect x="8" y="8" width="16" height="24" fill="#ff0000"/>
    <!-- Head -->
    <rect x="4" y="0" width="24" height="16" fill="#ffb27f"/>
    <!-- Hat -->
    <rect x="4" y="0" width="24" height="4" fill="#ff0000"/>
    <!-- Eyes -->
    <circle cx="12" cy="8" r="2" fill="#000"/>
    <!-- Mustache -->
    <rect x="10" y="12" width="12" height="2" fill="#000"/>
    <!-- Overalls -->
    <rect x="8" y="16" width="16" height="16" fill="#0000ff"/>
    <!-- Arms -->
    <rect x="4" y="16" width="4" height="8" fill="#ffb27f"/>
    <rect x="24" y="16" width="4" height="8" fill="#ffb27f"/>
    <!-- Shoes -->
    <rect x="8" y="28" width="8" height="4" fill="#964B00"/>
    <rect x="16" y="28" width="8" height="4" fill="#964B00"/>
  </g>
  
  <!-- Frame 2: Walking 1 -->
  <g transform="translate(32,0)">
    <!-- Body -->
    <rect x="8" y="8" width="16" height="24" fill="#ff0000"/>
    <!-- Head -->
    <rect x="4" y="0" width="24" height="16" fill="#ffb27f"/>
    <!-- Hat -->
    <rect x="4" y="0" width="24" height="4" fill="#ff0000"/>
    <!-- Eyes -->
    <circle cx="12" cy="8" r="2" fill="#000"/>
    <!-- Mustache -->
    <rect x="10" y="12" width="12" height="2" fill="#000"/>
    <!-- Overalls -->
    <rect x="8" y="16" width="16" height="16" fill="#0000ff"/>
    <!-- Arms -->
    <rect x="4" y="16" width="4" height="8" fill="#ffb27f"/>
    <rect x="24" y="16" width="4" height="8" fill="#ffb27f"/>
    <!-- Legs (walking position) -->
    <rect x="8" y="24" width="8" height="8" fill="#0000ff"/>
    <rect x="16" y="24" width="8" height="4" fill="#0000ff"/>
    <!-- Shoes -->
    <rect x="8" y="28" width="8" height="4" fill="#964B00"/>
    <rect x="16" y="24" width="8" height="4" fill="#964B00"/>
  </g>
  
  <!-- Frame 3: Walking 2 -->
  <g transform="translate(64,0)">
    <!-- Body -->
    <rect x="8" y="8" width="16" height="24" fill="#ff0000"/>
    <!-- Head -->
    <rect x="4" y="0" width="24" height="16" fill="#ffb27f"/>
    <!-- Hat -->
    <rect x="4" y="0" width="24" height="4" fill="#ff0000"/>
    <!-- Eyes -->
    <circle cx="12" cy="8" r="2" fill="#000"/>
    <!-- Mustache -->
    <rect x="10" y="12" width="12" height="2" fill="#000"/>
    <!-- Overalls -->
    <rect x="8" y="16" width="16" height="16" fill="#0000ff"/>
    <!-- Arms (different position) -->
    <rect x="2" y="16" width="6" height="8" fill="#ffb27f"/>
    <rect x="24" y="16" width="6" height="8" fill="#ffb27f"/>
    <!-- Legs (different walking position) -->
    <rect x="8" y="24" width="8" height="4" fill="#0000ff"/>
    <rect x="16" y="24" width="8" height="8" fill="#0000ff"/>
    <!-- Shoes -->
    <rect x="8" y="24" width="8" height="4" fill="#964B00"/>
    <rect x="16" y="28" width="8" height="4" fill="#964B00"/>
  </g>
  
  <!-- Frame 4: Jumping -->
  <g transform="translate(96,0)">
    <!-- Body (slightly raised) -->
    <rect x="8" y="6" width="16" height="24" fill="#ff0000"/>
    <!-- Head -->
    <rect x="4" y="0" width="24" height="16" fill="#ffb27f"/>
    <!-- Hat -->
    <rect x="4" y="0" width="24" height="4" fill="#ff0000"/>
    <!-- Eyes -->
    <circle cx="12" cy="8" r="2" fill="#000"/>
    <!-- Mustache -->
    <rect x="10" y="12" width="12" height="2" fill="#000"/>
    <!-- Overalls -->
    <rect x="8" y="16" width="16" height="14" fill="#0000ff"/>
    <!-- Arms (raised position) -->
    <rect x="2" y="12" width="6" height="8" fill="#ffb27f"/>
    <rect x="24" y="12" width="6" height="8" fill="#ffb27f"/>
    <!-- Legs (jumping position) -->
    <rect x="8" y="26" width="6" height="6" fill="#0000ff"/>
    <rect x="18" y="26" width="6" height="6" fill="#0000ff"/>
    <!-- Shoes -->
    <rect x="8" y="28" width="6" height="4" fill="#964B00"/>
    <rect x="18" y="28" width="6" height="4" fill="#964B00"/>
  </g>
  
  <!-- Frame 5: Idle (facing left) -->
  <g transform="translate(128,0)">
    <!-- Body -->
    <rect x="8" y="8" width="16" height="24" fill="#ff0000"/>
    <!-- Head -->
    <rect x="4" y="0" width="24" height="16" fill="#ffb27f"/>
    <!-- Hat -->
    <rect x="4" y="0" width="24" height="4" fill="#ff0000"/>
    <!-- Eyes (facing left) -->
    <circle cx="20" cy="8" r="2" fill="#000"/>
    <!-- Mustache -->
    <rect x="10" y="12" width="12" height="2" fill="#000"/>
    <!-- Overalls -->
    <rect x="8" y="16" width="16" height="16" fill="#0000ff"/>
    <!-- Arms -->
    <rect x="4" y="16" width="4" height="8" fill="#ffb27f"/>
    <rect x="24" y="16" width="4" height="8" fill="#ffb27f"/>
    <!-- Shoes -->
    <rect x="8" y="28" width="8" height="4" fill="#964B00"/>
    <rect x="16" y="28" width="8" height="4" fill="#964B00"/>
  </g>
  
  <!-- Frame 6: Damaged/Hurt -->
  <g transform="translate(160,0)">
    <!-- Body (flashing) -->
    <rect x="8" y="8" width="16" height="24" fill="#ff8888"/>
    <!-- Head -->
    <rect x="4" y="0" width="24" height="16" fill="#ffcca7"/>
    <!-- Hat -->
    <rect x="4" y="0" width="24" height="4" fill="#ff8888"/>
    <!-- Eyes (hurt expression) -->
    <rect x="10" y="8" width="4" height="2" fill="#000"/>
    <rect x="18" y="8" width="4" height="2" fill="#000"/>
    <!-- Mouth (grimace) -->
    <rect x="12" y="12" width="8" height="2" fill="#000"/>
    <!-- Overalls -->
    <rect x="8" y="16" width="16" height="16" fill="#8888ff"/>
    <!-- Arms -->
    <rect x="4" y="16" width="4" height="8" fill="#ffcca7"/>
    <rect x="24" y="16" width="4" height="8" fill="#ffcca7"/>
    <!-- Shoes -->
    <rect x="8" y="28" width="8" height="4" fill="#964B00"/>
    <rect x="16" y="28" width="8" height="4" fill="#964B00"/>
  </g>
</svg>