<svg xmlns="http://www.w3.org/2000/svg" viewBox="0 0 192 32" width="192" height="32">
  <!-- Enemy character sprite sheet with 6 frames (32x32 each) -->
  <!-- Frame 1: Goomba-style enemy (Idle) -->
  <g transform="translate(0,0)">
    <!-- Body -->
    <rect x="8" y="16" width="16" height="16" fill="#8B4513"/>
    <!-- Eyes -->
    <circle cx="12" cy="20" r="2" fill="#fff"/>
    <circle cx="20" cy="20" r="2" fill="#fff"/>
    <!-- Pupils -->
    <circle cx="12" cy="20" r="1" fill="#000"/>
    <circle cx="20" cy="20" r="1" fill="#000"/>
    <!-- Eyebrows -->
    <rect x="10" y="18" width="4" height="1" fill="#000"/>
    <rect x="18" y="18" width="4" height="1" fill="#000"/>
    <!-- Mouth -->
    <rect x="14" y="24" width="4" height="1" fill="#000"/>
    <!-- Feet -->
    <rect x="6" y="28" width="8" height="4" fill="#000"/>
    <rect x="18" y="28" width="8" height="4" fill="#000"/>
  </g>
  
  <!-- Frame 2: Goomba-style enemy (Walking) -->
  <g transform="translate(32,0)">
    <!-- Body -->
    <rect x="8" y="16" width="16" height="16" fill="#8B4513"/>
    <!-- Eyes -->
    <circle cx="12" cy="20" r="2" fill="#fff"/>
    <circle cx="20" cy="20" r="2" fill="#fff"/>
    <!-- Pupils -->
    <circle cx="12" cy="20" r="1" fill="#000"/>
    <circle cx="20" cy="20" r="1" fill="#000"/>
    <!-- Eyebrows -->
    <rect x="10" y="18" width="4" height="1" fill="#000"/>
    <rect x="18" y="18" width="4" height="1" fill="#000"/>
    <!-- Mouth -->
    <rect x="14" y="24" width="4" height="1" fill="#000"/>
    <!-- Feet (walking position) -->
    <rect x="4" y="28" width="8" height="4" fill="#000"/>
    <rect x="20" y="28" width="8" height="4" fill="#000"/>
  </g>
  
  <!-- Frame 3: Koopa-style enemy (Idle) -->
  <g transform="translate(64,0)">
    <!-- Shell -->
    <rect x="8" y="8" width="16" height="20" fill="#00aa00"/>
    <!-- Head -->
    <rect x="10" y="4" width="12" height="8" fill="#ffcc99"/>
    <!-- Eyes -->
    <circle cx="14" cy="8" r="2" fill="#fff"/>
    <circle cx="18" cy="8" r="2" fill="#fff"/>
    <!-- Pupils -->
    <circle cx="14" cy="8" r="1" fill="#000"/>
    <circle cx="18" cy="8" r="1" fill="#000"/>
    <!-- Shell pattern -->
    <rect x="10" y="12" width="12" height="12" fill="#ffff00"/>
    <!-- Feet -->
    <rect x="6" y="28" width="6" height="4" fill="#ffcc99"/>
    <rect x="20" y="28" width="6" height="4" fill="#ffcc99"/>
  </g>
  
  <!-- Frame 4: Koopa-style enemy (Walking) -->
  <g transform="translate(96,0)">
    <!-- Shell -->
    <rect x="8" y="8" width="16" height="20" fill="#00aa00"/>
    <!-- Head -->
    <rect x="10" y="4" width="12" height="8" fill="#ffcc99"/>
    <!-- Eyes -->
    <circle cx="14" cy="8" r="2" fill="#fff"/>
    <circle cx="18" cy="8" r="2" fill="#fff"/>
    <!-- Pupils -->
    <circle cx="14" cy="8" r="1" fill="#000"/>
    <circle cx="18" cy="8" r="1" fill="#000"/>
    <!-- Shell pattern -->
    <rect x="10" y="12" width="12" height="12" fill="#ffff00"/>
    <!-- Feet (walking position) -->
    <rect x="4" y="28" width="6" height="4" fill="#ffcc99"/>
    <rect x="22" y="28" width="6" height="4" fill="#ffcc99"/>
  </g>
  
  <!-- Frame 5: Ghost-style enemy (Idle) -->
  <g transform="translate(128,0)">
    <!-- Body -->
    <path d="M8,8 L24,8 L24,24 C24,28 20,32 16,32 C12,32 8,28 8,24 Z" fill="#ffffff"/>
    <!-- Eyes -->
    <circle cx="12" cy="16" r="3" fill="#0000ff"/>
    <circle cx="20" cy="16" r="3" fill="#0000ff"/>
    <!-- Pupils -->
    <circle cx="12" cy="16" r="1" fill="#000"/>
    <circle cx="20" cy="16" r="1" fill="#000"/>
    <!-- Mouth -->
    <path d="M12,22 Q16,26 20,22" stroke="#0000ff" fill="transparent" stroke-width="1"/>
  </g>
  
  <!-- Frame 6: Ghost-style enemy (Fading) -->
  <g transform="translate(160,0)">
    <!-- Body (semi-transparent) -->
    <path d="M8,8 L24,8 L24,24 C24,28 20,32 16,32 C12,32 8,28 8,24 Z" fill="#ccccff"/>
    <!-- Eyes -->
    <circle cx="12" cy="16" r="3" fill="#8888ff"/>
    <circle cx="20" cy="16" r="3" fill="#8888ff"/>
    <!-- Pupils -->
    <circle cx="12" cy="16" r="1" fill="#000"/>
    <circle cx="20" cy="16" r="1" fill="#000"/>
    <!-- Mouth -->
    <path d="M12,22 Q16,26 20,22" stroke="#8888ff" fill="transparent" stroke-width="1"/>
  </g>
</svg>