<svg xmlns="http://www.w3.org/2000/svg" viewBox="0 0 192 32" width="192" height="32">
  <!-- Pepe-style character sprite sheet with 6 frames (32x32 each) -->
  <!-- Frame 1: Idle -->
  <g transform="translate(0,0)">
    <!-- Body -->
    <rect x="8" y="8" width="16" height="24" fill="#77b255"/>
    <!-- Head -->
    <rect x="4" y="0" width="24" height="16" fill="#77b255"/>
    <!-- Eyes -->
    <circle cx="12" cy="8" r="2" fill="#000"/>
    <circle cx="20" cy="8" r="2" fill="#000"/>
    <!-- Mouth -->
    <path d="M12,16 Q16,20 20,16" stroke="#000" fill="transparent" stroke-width="1"/>
    <!-- Arms -->
    <rect x="4" y="16" width="4" height="8" fill="#77b255"/>
    <rect x="24" y="16" width="4" height="8" fill="#77b255"/>
    <!-- Legs -->
    <rect x="8" y="28" width="6" height="4" fill="#5c8c42"/>
    <rect x="18" y="28" width="6" height="4" fill="#5c8c42"/>
  </g>
  
  <!-- Frame 2: Walking 1 -->
  <g transform="translate(32,0)">
    <!-- Body -->
    <rect x="8" y="8" width="16" height="24" fill="#77b255"/>
    <!-- Head -->
    <rect x="4" y="0" width="24" height="16" fill="#77b255"/>
    <!-- Eyes -->
    <circle cx="12" cy="8" r="2" fill="#000"/>
    <circle cx="20" cy="8" r="2" fill="#000"/>
    <!-- Mouth -->
    <path d="M12,16 Q16,20 20,16" stroke="#000" fill="transparent" stroke-width="1"/>
    <!-- Arms (walking position) -->
    <rect x="4" y="14" width="6" height="8" fill="#77b255"/>
    <rect x="22" y="18" width="6" height="8" fill="#77b255"/>
    <!-- Legs (walking position) -->
    <rect x="8" y="24" width="8" height="8" fill="#77b255"/>
    <rect x="16" y="24" width="8" height="4" fill="#77b255"/>
    <!-- Feet -->
    <rect x="8" y="28" width="8" height="4" fill="#5c8c42"/>
    <rect x="16" y="24" width="8" height="4" fill="#5c8c42"/>
  </g>
  
  <!-- Frame 3: Walking 2 -->
  <g transform="translate(64,0)">
    <!-- Body -->
    <rect x="8" y="8" width="16" height="24" fill="#77b255"/>
    <!-- Head -->
    <rect x="4" y="0" width="24" height="16" fill="#77b255"/>
    <!-- Eyes -->
    <circle cx="12" cy="8" r="2" fill="#000"/>
    <circle cx="20" cy="8" r="2" fill="#000"/>
    <!-- Mouth -->
    <path d="M12,16 Q16,20 20,16" stroke="#000" fill="transparent" stroke-width="1"/>
    <!-- Arms (different position) -->
    <rect x="2" y="18" width="6" height="8" fill="#77b255"/>
    <rect x="24" y="14" width="6" height="8" fill="#77b255"/>
    <!-- Legs (different walking position) -->
    <rect x="8" y="24" width="8" height="4" fill="#77b255"/>
    <rect x="16" y="24" width="8" height="8" fill="#77b255"/>
    <!-- Feet -->
    <rect x="8" y="24" width="8" height="4" fill="#5c8c42"/>
    <rect x="16" y="28" width="8" height="4" fill="#5c8c42"/>
  </g>
  
  <!-- Frame 4: Jumping -->
  <g transform="translate(96,0)">
    <!-- Body (slightly raised) -->
    <rect x="8" y="6" width="16" height="24" fill="#77b255"/>
    <!-- Head -->
    <rect x="4" y="0" width="24" height="16" fill="#77b255"/>
    <!-- Eyes (wide open) -->
    <circle cx="12" cy="8" r="3" fill="#000"/>
    <circle cx="20" cy="8" r="3" fill="#000"/>
    <!-- Mouth (open) -->
    <circle cx="16" cy="16" r="3" fill="#000"/>
    <!-- Arms (raised position) -->
    <rect x="2" y="12" width="6" height="8" fill="#77b255"/>
    <rect x="24" y="12" width="6" height="8" fill="#77b255"/>
    <!-- Legs (jumping position) -->
    <rect x="8" y="26" width="6" height="6" fill="#77b255"/>
    <rect x="18" y="26" width="6" height="6" fill="#77b255"/>
    <!-- Feet -->
    <rect x="8" y="28" width="6" height="4" fill="#5c8c42"/>
    <rect x="18" y="28" width="6" height="4" fill="#5c8c42"/>
  </g>
  
  <!-- Frame 5: Idle (facing left) -->
  <g transform="translate(128,0)">
    <!-- Body -->
    <rect x="8" y="8" width="16" height="24" fill="#77b255"/>
    <!-- Head -->
    <rect x="4" y="0" width="24" height="16" fill="#77b255"/>
    <!-- Eyes (facing left) -->
    <circle cx="10" cy="8" r="2" fill="#000"/>
    <circle cx="18" cy="8" r="2" fill="#000"/>
    <!-- Mouth -->
    <path d="M12,16 Q16,20 20,16" stroke="#000" fill="transparent" stroke-width="1"/>
    <!-- Arms -->
    <rect x="4" y="16" width="4" height="8" fill="#77b255"/>
    <rect x="24" y="16" width="4" height="8" fill="#77b255"/>
    <!-- Legs -->
    <rect x="8" y="28" width="6" height="4" fill="#5c8c42"/>
    <rect x="18" y="28" width="6" height="4" fill="#5c8c42"/>
  </g>
  
  <!-- Frame 6: Damaged/Hurt -->
  <g transform="translate(160,0)">
    <!-- Body (flashing) -->
    <rect x="8" y="8" width="16" height="24" fill="#a4d880"/>
    <!-- Head -->
    <rect x="4" y="0" width="24" height="16" fill="#a4d880"/>
    <!-- Eyes (hurt expression) -->
    <rect x="10" y="8" width="4" height="2" fill="#000"/>
    <rect x="18" y="8" width="4" height="2" fill="#000"/>
    <!-- Mouth (grimace) -->
    <rect x="12" y="16" width="8" height="2" fill="#000"/>
    <!-- Arms -->
    <rect x="4" y="16" width="4" height="8" fill="#a4d880"/>
    <rect x="24" y="16" width="4" height="8" fill="#a4d880"/>
    <!-- Legs -->
    <rect x="8" y="28" width="6" height="4" fill="#5c8c42"/>
    <rect x="18" y="28" width="6" height="4" fill="#5c8c42"/>
  </g>
</svg>